<svg height="440pt" viewBox="0 -22 440 440" width="440pt" xmlns="http://www.w3.org/2000/svg"><path d="m75 25h90v11h-90zm0 0"/><path d="m85 75h70v13h-70zm0 0"/><path d="m297 69h70v19h-70zm0 0"/><path d="m190 0h-140v61h140zm-11 43c0 3.867188-3.132812 7-7 7h-104c-3.867188 0-7-3.132812-7-7v-25c0-3.867188 3.132812-7 7-7h104c3.867188 0 7 3.132812 7 7zm0 0"/><path d="m38 158h51v23h-51zm0 0"/><path d="m404.707031 102h-369.414062c-19.492188 0-35.292969 15.800781-35.292969 35.292969v223.414062c0 19.492188 15.800781 35.292969 35.292969 35.292969h369.414062c19.492188 0 35.292969-15.800781 35.292969-35.292969v-223.414062c0-19.492188-15.800781-35.292969-35.292969-35.292969zm-307.707031 93h-66c-3.867188 0-7-3.132812-7-7v-37c0-3.867188 3.132812-7 7-7h66c3.867188 0 7 3.132812 7 7v37c0 3.867188-3.132812 7-7 7zm123 172.078125c-64.351562 0-116.519531-52.164063-116.519531-116.515625s52.167969-116.519531 116.519531-116.519531 116.515625 52.167969 116.515625 116.519531c-.070313 64.320312-52.195313 116.445312-116.515625 116.515625zm0 0"/><path d="m220 148.042969c-56.621094 0-102.519531 45.898437-102.519531 102.519531 0 56.617188 45.898437 102.515625 102.519531 102.515625 56.617188.003906 102.515625-45.898437 102.515625-102.515625-.0625-56.59375-45.921875-102.453125-102.515625-102.519531zm0 174.867187c-39.957031.003906-72.351562-32.390625-72.351562-72.347656 0-39.960938 32.390624-72.351562 72.351562-72.351562 39.957031 0 72.351562 32.390624 72.351562 72.351562-.046874 39.9375-32.414062 72.304688-72.351562 72.347656zm0 0"/><path d="m278.351562 250.5625c0 32.226562-26.125 58.347656-58.351562 58.347656s-58.351562-26.121094-58.351562-58.347656 26.125-58.351562 58.351562-58.351562 58.351562 26.125 58.351562 58.351562zm0 0"/></svg>